<svg viewBox="0 0 431 118.32" xmlns="http://www.w3.org/2000/svg"><g stroke="#000"><path d="m14.45 107.2c-.74 0-1.11-.13-1.11-.37s.18-.43.68-.87c9.4-8.19 16.34-15.15 16.34-23.83 0-7.13-5.22-12.63-14.56-12.63a21 21 0 0 0 -14.44 5.61c-.55.55-.86.89-.86 1.35s.25.74.74 1.29l2.46 2.65c.55.56.92.86 1.22.86s.74-.24 1.29-.86a12.35 12.35 0 0 1 9-4.06c5 0 7.8 2.77 7.8 6.77 0 6-6.39 12.2-17.44 21.93a39.91 39.91 0 0 1 -3.14 2.59 2.9 2.9 0 0 0 -1.47 3v1.1c0 1.42.24 1.79 1.53 1.79.43 0 6.2-.12 9.34-.12h8c3.13 0 8.91.12 9.34.12 1.29 0 1.53-.37 1.53-1.79v-2.9c0-1.41-.24-1.78-1.53-1.78-.43 0-6.2.12-9.34.12zm40.13-37.64c-12.1 0-18.58 10.23-18.58 22.85 0 14 7.8 21.5 17.63 21.5 10.26 0 18.67-8.56 18.67-23.22.03-14.04-8.07-21.13-17.72-21.13zm0 6.9c6.08 0 10.57 4.8 10.57 14.48 0 10-4.92 16.38-11.49 16.38-6.2 0-10.45-5.11-10.45-14.72 0-8.69 3.57-16.14 11.37-16.14zm55.42 30.74a25.36 25.36 0 0 0 -1.41-4.32c-1.11-2.77-1.41-3.44-2.15-3.44s-3 .73-3 1.6a2.65 2.65 0 0 0 .25.86c1 2.46 1.41 3.63 2.21 6.22.18.49.31.86.86.86.24.02 3.24-.49 3.24-1.78zm-13.45-5.92c0-.49-.43-.61-1.35-.86a26.6 26.6 0 0 0 -3.13-.8c-.37 0-.5.25-.56.56a32.77 32.77 0 0 1 -3 7.51 2.06 2.06 0 0 0 -.24.8c0 .92 2.64 1.6 3.19 1.6s.8-.43 1-.86a56.42 56.42 0 0 0 2.58-6.53c.12-.37.18-.62.61-.74.21-.06.89-.19.89-.68zm29.79-17.28c.18-.19.49-.44.49-.74s-1.6-2.1-1.9-2.59a1 1 0 0 1 -.18-.55c0-.5.37-.68.86-.74 2.33 0 4.67.12 7.06.12 1.29 0 1.29-.68 1.29-2.71s.06-2.71-1.29-2.71c-2.52 0-5 .12-7.49.12h-13.9a1 1 0 0 1 -1.16-.84.91.91 0 0 1 0-.33v-.63a1 1 0 0 1 .83-1.17.92.92 0 0 1 .33 0h7.5c2.09 0 4.18.12 6.27.12 1.11 0 1.17-.55 1.17-2.4s-.06-2.46-1.23-2.46c-2.09 0-4.12.12-6.2.12h-7.19c-.49-.06-1.29-.25-1.29-.86a1.35 1.35 0 0 1 .49-.8c.49-.37.8-.5.8-.93 0-.68-1-.74-1.47-.8-1-.12-4.61-.49-5.47-.49-.61 0-1.11.12-1.11.86 0 .19.06.37.06.56.13 1.41.25 2.9.25 4.31v4c0 1.23-.49 1.72-1.72 1.72h-4.92c-1.23 0-1.72-.49-1.72-1.72v-2.9c0-2.1.06-3 .73-3.51.49-.37.8-.5.8-.93 0-.74-1-.74-1.53-.8-1-.12-4.55-.49-5.41-.49-.61 0-1.11.12-1.11.86 0 .19.06.43.06.56.13 1.41.25 3 .25 4.55v2.65c0 1.17-.49 1.73-1.72 1.73-2.15 0-4.36-.13-6.51-.13-1.41 0-1.35.74-1.35 2.78s-.06 2.65 1.35 2.65c2.46 0 5-.13 7.49-.13h30.72c.25 0 .55 0 .55.19s-.24.24-.43.37-.73.31-.73.68.24.55.73 1.1a13.62 13.62 0 0 1 1.11 1.31.93.93 0 0 1 .25.55c0 .56-.49.68-.93.74h-3.07c-.86 0-1.66-.43-1.66-1.42a.92.92 0 0 1 .49-.8c.43-.24.74-.37.74-.8 0-.61-.61-.8-1.1-.86s-5.1-.37-5.47-.37c-.8 0-1.11.13-1.11.62 0 .18.19 1.54.19 2 0 1.23-.5 1.66-1.66 1.66h-15.3c-1.9 0-3.75-.12-5.66-.12-2.15 0-3.44.49-3.44 3 0 1.54.13 3.14.13 4.74v1.6a51.16 51.16 0 0 1 -2.46 15.46 32.28 32.28 0 0 1 -1.65 4.5 1.67 1.67 0 0 0 -.25.74c0 1.3 3.62 3.45 4.85 3.45.92 0 1.54-1.85 2-3a56.9 56.9 0 0 0 3.61-20.11v-3.33c0-1.17.49-1.66 1.72-1.66h16.77c1.17 0 1.72.37 1.85 1.6a48.52 48.52 0 0 0 3.5 13.49 2.34 2.34 0 0 1 .24 1.11 1.8 1.8 0 0 1 -.73 1.54 33.15 33.15 0 0 1 -7.5 5.48c-.49.24-1.53.74-1.53 1.41 0 1 2.51 3.7 3.74 3.7 1.42 0 7-4.68 8.3-5.72a1.53 1.53 0 0 1 1.1-.5 1.47 1.47 0 0 1 1.17.62c2.33 2.59 5.53 5.36 9.15 5.36s5.29-1.91 6.39-5a20.4 20.4 0 0 0 1.11-6 1.53 1.53 0 0 0 -1.29-1.72 9.21 9.21 0 0 0 -2.89-.56c-1.1 0-1.16.37-1.29 1.36-.18 1.6-.43 5.11-2.52 5.11-1.47 0-3.38-2.15-4.3-3.26a1.92 1.92 0 0 1 -.55-1.24 2.21 2.21 0 0 1 .55-1.29 48.07 48.07 0 0 0 5-8c.55-1.11.55-1.23 1.35-1.54.37-.12.8-.37.8-.86s-.49-.68-2.4-1.48a19 19 0 0 0 -3.44-1.29c-.61 0-.8.74-1 1.17a28.7 28.7 0 0 1 -3.3 6.55.83.83 0 0 1 -.8.43.87.87 0 0 1 -.8-.62 35.31 35.31 0 0 1 -1.9-8.25v-.32c0-1 .74-1.29 1.54-1.29h7.43c2.46 0 4.85.12 7.31.12 1.41 0 1.47-.55 1.47-2.77s-.06-2.77-1.47-2.77-3.75.06-5.41.12c-.12-.06-.12-.12-.12-.18s.06-.06.12-.13zm-24.34 15.56c0-1.17.43-1.66 1.6-1.73.61.07 2.45.13 2.88.13 1.48 0 1.36-.93 1.36-2.59s.12-2.53-1.29-2.53-3 .13-4.49.13h-5.7c-1.54 0-3.08-.13-4.49-.13s-1.29.93-1.29 2.59-.06 2.57 1.35 2.57c.49 0 2.83-.13 3.63-.13 1.23.07 1.72.5 1.72 1.73v7c0 2.22.06 3-1.72 3-.74 0-1.42-.06-1.9-.06-.86 0-1.11.43-1.11 1.23 0 4.25 1.54 3.94 2.21 3.94 4.73 0 7.31-.92 7.31-5.3 0-1.29-.06-2.59-.06-3.82zm60.84-.19c-1.17 0-3.32 4.38-3.32 5.24s4.11 6.16 14.07 6.16c2.45 0 12.84-.93 14.56-1.85.8-.43.73-1.54.73-2.28 0-3.14-.12-4.62-1.1-4.62a4.34 4.34 0 0 0 -1.29.25 50.29 50.29 0 0 1 -13.52 2c-4.12 0-6.7-1-9.34-4.31a1.09 1.09 0 0 0 -.78-.59zm1.41-26.67c-1 0-1.29.93-1.29 3.88 0 .68-.06 2 .61 2.4 1.29.86 8.85 1.23 10.75 1.23a69.86 69.86 0 0 0 10.32-.86c1.17-.24 1.17-.74 1.17-2a31.07 31.07 0 0 0 -.24-3.33c-.13-.74-.37-1.47-1.23-1.47a5.14 5.14 0 0 0 -1.11.18 35.89 35.89 0 0 1 -17.39.31 7.85 7.85 0 0 0 -1.59-.31zm-14.75-4.8c-.67 0-.8.8-.92 1.36a27.31 27.31 0 0 1 -.8 3.08 73.66 73.66 0 0 0 -3.13 20.38c0 6.47.86 13.06 3.75 18.91.8 1.67 1.53 3 2.58 3 1.29 0 4.79-1.48 4.79-3a7 7 0 0 0 -.12-.92c-.07-.55-.25-2-.25-2.59 0-2.77 2.46-8.37 2.46-8.93s-1.6-2-2.22-2-.92.68-1.29 1.48c-.24.62-1.1 2.4-1.65 2.4-1.42 0-1.66-7.45-1.66-8.62a48.77 48.77 0 0 1 3.45-17.45c.61-1.54.86-2.09 1.9-2.65.61-.37.86-.43.86-.8 0-.61-.74-.86-1.23-1-.85-.37-6-2.59-6.51-2.59zm73.5 37.2c3.08 0 3.14.68 3.14 1.91 0 2.16-1 3.33-3.2 3.33-1.6 0-4.06-1-4.06-2.9s2.65-2.34 4.12-2.34zm3-21.74c-.92 0-1.47.37-1.47 1.35 0 .31.06.56.06.87.19 2.4 1.11 11.33 1.11 13.3 0 .73-.56 1-1.29 1h-1.6c-4.86 0-10.2 2-10.2 7.64s5.83 8.38 10.81 8.38c4.18 0 7.8-1.54 8.54-6 .06-.55.31-1.42 1-1.42 1 0 4 2.16 4.92 2.84.43.31 1 .86 1.6.86 1.53 0 3.81-4.5 3.81-4.5s-7.25-4.87-8.67-5.42c-.18-.06-.43-.19-.61-.25-.92-.37-1.72-.61-1.9-1.54-.31-1.29-.61-10.16-.61-12 0-1.29.12-3.14.12-3.26 0-.74-.55-1.11-1.23-1.3a26.86 26.86 0 0 0 -4.37-.6zm9.4-9.49c-1.29 0-4.11 3.39-4.11 4.25 0 .43.55.8.8 1a34.87 34.87 0 0 1 7.68 7.94c.3.44.73 1.11 1.35 1.11 1.11 0 4.61-2.77 4.61-4.25s-8.79-10-10.33-10zm-20.64-10c-.55 0-.55.62-.55 1 0 2-1 8.81-2 10.35-.49.8-1 .86-1.84 1a53.46 53.46 0 0 1 -6.33.31h-2.82c-.68 0-1.11.19-1.11 1 0 .61.31 2.83.43 3.57.25 1.42.49 2 1.54 2 1.41 0 6.14-.61 6.63-.61a.82.82 0 0 1 .86.79 24.23 24.23 0 0 1 -1.38 3.72 116.44 116.44 0 0 1 -7.31 14.23 6.91 6.91 0 0 0 -1.11 2.22c0 1.29 4.12 3.08 5.47 3.08.67 0 .86-.25 1.23-.86a158.17 158.17 0 0 0 10-21.93c.74-2 .68-2.47 2.89-2.83 5.65-1.05 6.39-1.17 6.39-2.53a29.71 29.71 0 0 0 -.31-3.26c-.12-.74-.18-1.85-.92-1.85a2.2 2.2 0 0 0 -.62.12 27.7 27.7 0 0 1 -3.5.92.72.72 0 0 1 -.68-.75.07.07 0 0 0 0 0 20.68 20.68 0 0 1 .67-2.77c.19-.68.62-2.83 1.11-3.26s1-.68 1-1.11-.67-.62-1-.74c-1-.31-6.08-1.79-6.76-1.79zm62.06 43.43c0 1-.49 2.09-1.66 2.09-1.84 0-4.79-1-4.79-3.26a2.56 2.56 0 0 1 2.63-2.47 3.75 3.75 0 0 1 3.82 3.6zm5.72-39.92a8.62 8.62 0 0 0 -2.34.68c-3.56 1.42-11.61 2.28-15.54 2.28h-1.48c-1.84 0-1.9.12-1.9 1.54 0 1 .19 5.67 1.54 5.67 1 0 9.65-1.79 11.12-2.16.49-.1 1-.19 1.47-.24s1 .18 1 .74-1.11 1.72-1.6 2.21a245.6 245.6 0 0 1 -19.06 19.3c-.55.43-1.47 1.11-1.47 1.85 0 1 3.13 4.44 4.42 4.44a.86.86 0 0 0 .68-.43c2.21-2.53 4.42-5.06 6.82-7.4 3.93-3.88 8.17-6 13.76-6 5.34 0 10.38 2.46 10.38 8.44 0 6.22-5.84 9.48-7.43 9.48-.5 0-.68-.37-.74-.8a6.15 6.15 0 0 0 -1.11-3.94 10 10 0 0 0 -8.17-4.37 7.72 7.72 0 0 0 -7.86 7.45c0 6.28 7.25 8.38 12.35 8.38 9.89 0 19.53-5.67 19.53-16.57a12.72 12.72 0 0 0 -7.31-12 18 18 0 0 0 -7.55-1.85 11.77 11.77 0 0 0 -2.52.24 3.18 3.18 0 0 1 -.8.13c-.56 0-1.05-.31-1.05-.8a1.84 1.84 0 0 1 .62-1 59.44 59.44 0 0 1 8.9-8.25c.68-.5 1.36-.87 1.36-1.3 0-1.1-3.56-5.76-6.02-5.76zm41.85 36.72c1.42 0 2.89 0 2.89 1.17 0 3.32-2.4 4.12-5.22 4.12-1.6 0-4.36-.37-4.36-2.46 0-2.69 4.79-2.87 6.69-2.87zm2.09-38.63c-.55 0-.92.13-.92.74a5.58 5.58 0 0 0 .12 1c.19 1 .56 5.17.56 6.16 0 1.66-1.54 1.54-6.94 1.54-3 0-8.17-.49-9.46-.49-1 0-1.11.86-1.11 1.72 0 1.11.06 3.57.68 4.5.36.49 1.9.56 3.56.56h1.84c3.32 0 8.23-.31 10.38-.31 1.6 0 1.66 2.52 1.66 4.31 0 1.35-.86 1.54-3.13 1.54h-2.72c-2.33 0-5.77-.31-6.51-.31s-1 .55-1 1.29a12.48 12.48 0 0 0 .8 4.32c.49 1.11 1.66 1 4.18 1s6.08-.24 7.37-.24c1.53 0 1.41 2.28 1.41 4.25 0 .61 0 1.72-1 1.72-.37 0-1.79-.12-2.52-.12-5.1 0-11.8 2-11.8 8.19 0 5.73 5.34 8 10.26 8s9.83-1.54 11.12-6.84c.12-.43.24-1.35 1.23-1.35 1.23 0 5.28 2.9 6.39 3.75a3.32 3.32 0 0 0 1.9 1c1.47 0 3.5-3.14 3.5-4.5 0-2.22-8.11-5.67-10.14-6.34-2.63-.87-2.88-.38-2.88-6.78 0-1.72 1.23-1.72 3.56-2a52.22 52.22 0 0 0 6.33-1c1.11-.24 1.17-.86 1.17-2.9 0-2.34-.19-3.7-1.05-3.7a4.14 4.14 0 0 0 -1.16.25 52.48 52.48 0 0 1 -7.87 1.48c-.74 0-.86-.62-1-1a21 21 0 0 1 -.31-3.26c0-1.73 1.48-1.67 2.77-1.85 3.25-.37 7.06-.92 10.26-1.6 1.16-.25 1.72-.37 1.72-1.6 0-1-.19-5-1.54-5a15.31 15.31 0 0 0 -2.33.49 61.88 61.88 0 0 1 -6.7 1.42c-.43.06-2.83.43-3.08.43-1.1 0-1.29-.92-1.29-1.79.13-5 1.17-3.94 1.17-5.11 0-.68-.86-.8-2.46-1-1.21-.17-4.1-.61-5.02-.61zm32.29 10a27.69 27.69 0 0 0 .68 4.44c.18.67.49 2 1.35 2a4.73 4.73 0 0 0 .92-.12c3.93-1 9.46-1.91 13.58-2.53.61-.06 3.44-.55 3.87-.55s.92.18.92.74c0 .3-.37.74-1 1.47a27.4 27.4 0 0 0 -6.75 17.68c0 12 9 15.34 19.41 15.34 1 0 1.54-.12 2-1a17.72 17.72 0 0 0 .92-5c0-1-.49-1.05-1.42-1.05-.67 0-2 .07-3.07.07-6.26 0-10.81-1.73-10.81-8.87a23.13 23.13 0 0 1 2.95-10.84 18.67 18.67 0 0 1 10.36-9.25c3.5-1.23 6.64-1.23 10.2-1.3 1.48-.06 2.77.07 2.77-1.29a28.37 28.37 0 0 0 -.55-4.5c-.13-.74-.25-1.54-1.17-1.54a3.55 3.55 0 0 0 -.8.06c-4.61.74-9.28 1.36-13.95 1.91-8.91 1-17.87 2-26.84 2.53-2.71.19-3.57 0-3.57 1.6zm46.44 3.58c-.73 0-3.13 1.6-3.13 2.34a1.57 1.57 0 0 0 .43.8 50.45 50.45 0 0 1 4 5.11c.25.31.5.8.93.8.73 0 3.13-1.73 3.13-2.59s-4.73-6.46-5.35-6.46zm-7.43 3.38c-.67 0-3.13 1.54-3.13 2.28 0 .31.37.68.55.86 1.35 1.67 2.7 3.39 3.93 5.18.25.31.43.74.86.74.68 0 3.14-1.67 3.14-2.59 0-.74-4.67-6.46-5.35-6.46zm24.22 19.47a5.41 5.41 0 0 1 5.47 5.35v.13a5.47 5.47 0 1 1 -5.47-5.48zm0-3.08a8.54 8.54 0 0 0 -8.54 8.52 8.54 8.54 0 1 0 8.54-8.52z" stroke-width=".8"/><path d="m9.74 29.62a1.12 1.12 0 0 1 1-1.19h6.78a1.17 1.17 0 0 1 1.19 1.14v.74a1.15 1.15 0 0 1 -1.13 1.19h-6.7a1.12 1.12 0 0 1 -1.14-1.1v-.77zm9-6.32a1.12 1.12 0 0 1 -1.1 1.14h-6.76a1.07 1.07 0 0 1 -1.14-1v-.81a1.07 1.07 0 0 1 1-1.13h6.82a1.11 1.11 0 0 1 1.19 1v.77zm13.67-4.49a.65.65 0 0 1 .57-.45c.28 0 .34.57.4.74-.06 8.7-1.19 17-7.15 23.76a1.14 1.14 0 0 1 -.85.46 1.21 1.21 0 0 1 -1-.57c-1.09-1.42-2.05-2.84-3.18-4.21-1.42-1.7-2.16-2.73-2.84-2.73s-3.51 1.42-3.51 2.45c0 .51.62 1.08 1.25 1.82a.78.78 0 0 1 .22.62c0 .4-.28.57-.62.74-1.53.4-3 .85-4.54 1.31-.17 0-.28.06-.45.06-.74 0-1-.63-1-1.26v-4.26c0-1.14.45-1.59 1.58-1.59h6.71c1.19 0 2.32.11 3.52.11 1.81 0 2.6-.57 2.6-2.44 0-1.54-.11-3-.11-4.49v-4c.06-.29.11-.52.46-.52a1 1 0 0 1 .4.12c.51.45 1.92 1.59 2.66 1.59s1.19-.63 1.53-1.19a68.7 68.7 0 0 0 3.37-6.07zm-13.76-14.33a.37.37 0 0 1 -.17-.34c0-.22.22-.4.4-.51a.78.78 0 0 0 .56-.63c0-.51-.62-.68-1-.8s-1.44-.56-1.83-.73a18.51 18.51 0 0 0 -2.89-1c-.46 0-.68.28-.91.68a46.87 46.87 0 0 1 -11.18 13.4c-.51.45-1.13.97-1.13 1.45 0 1.08 2.15 3.12 3.23 3.24.46.05.63.4.68.85 0 1.37.06 2.73.06 4.1v19c0 1-.28 1.31-1.19 1.65-2 .45-2.56.56-2.56 1.08a16.4 16.4 0 0 0 1.14 2.78 14.54 14.54 0 0 0 .68 1.37c.51 1 .63 1.48 1.14 1.48s.68-.52.73-.86a1.38 1.38 0 0 1 .59-.83c4.48-1.42 8.9-2.9 13.27-4.49a3.51 3.51 0 0 1 .79-.12 1.47 1.47 0 0 1 1.36.91c.23.34.34.57.57.91.06.06.17.17.17.23a.38.38 0 0 1 -.11.23c-.46.34-.8.51-.8.91 0 1 2.55 3.47 3.92 3.47a2.77 2.77 0 0 0 1.47-.8 32.89 32.89 0 0 0 10.25-13.48.66.66 0 0 1 .51-.34.65.65 0 0 1 .57.4 33.9 33.9 0 0 0 6.03 10.07c.8.91 3.46 3.92 4.71 3.92s3.8-2.39 3.8-3.75c0-.63-.51-1-1-1.37a33.5 33.5 0 0 1 -6.57-7.56 33.13 33.13 0 0 1 -4.31-9.84c-.28-1.19-.56-3-.79-4.21a6.58 6.58 0 0 1 -.11-1.47v-.74c0-1.14.11-2.33.11-3.53s.45-1.48 1.53-1.48h2.63c.4 0 1.07-.05 1.07.57a27.34 27.34 0 0 1 -1.75 5.29 1.3 1.3 0 0 0 -.23.63c0 1.25 3.12 2.27 4.25 2.27s1.48-1.71 2.67-5.17a47.15 47.15 0 0 0 1.53-6.2c0-.8-1.08-2.9-4.14-2.9-1.25 0-2.5.11-3.74.11h-5.75c-.17-.06-1.08-.06-1.08-1a3.1 3.1 0 0 1 .11-.51 45.58 45.58 0 0 0 1.88-5.57c.28-1.11.18-1.17 1.18-1.62a1 1 0 0 0 .63-.74c0-.63-.57-.74-1.42-1l-.63-.17a28.65 28.65 0 0 0 -3.96-.82c-.56 0-.68.4-.79.91a55.79 55.79 0 0 1 -8 19.68.42.42 0 0 1 -.34.17.38.38 0 0 1 -.4-.37c0-.57.05-1.14.05-1.77 0-1.93-.79-2.44-2.66-2.44-.57 0-1.76.06-2.38.06-1 0-1.37-.4-1.42-1.43 0-.74 0-1.47.68-1.87.4-.34.74-.46.74-.86 0-.62-1.08-.62-1.48-.68-1.13-.11-3.35-.28-4.42-.28-.57 0-1 .11-1 .8v.57c.06.74.12 1.53.17 2.33 0 1.08-.51 1.48-1.59 1.48h-.28c-.74 0-1.47-.06-2.21-.12-.29-.08-.59-.2-.59-.54a.89.89 0 0 1 .23-.54 55.93 55.93 0 0 0 6.41-7.17 1.24 1.24 0 0 1 .9-.51 1.17 1.17 0 0 1 .91.51c1.08 1.37 6.58 7.62 7.94 7.62 1 0 3.23-2.5 3.23-3.3 0-.57-.79-1.13-1.19-1.42a50 50 0 0 1 -7.48-7.25zm38.83 37.82c-.06.11-1 2.44-1 2.5 0 1 4.54 2.61 5.44 2.61s1.08-1 1.25-1.76c1-3.7 2.95-8.87 5.22-11.94a16.81 16.81 0 0 1 5.79-5.17 10.53 10.53 0 0 1 4.82-1.6c1.65 0 2.16 1.14 2.16 2.62a25.69 25.69 0 0 1 -.63 4.61 36.54 36.54 0 0 0 -.73 6.6c0 3.57 1.64 7 5.67 7 4.42 0 8.28-3.13 11.4-6 1.36-1.25 2.66-2.56 4-3.87a2.16 2.16 0 0 0 .62-1.25c0-.8-1.93-5.29-2.95-5.29-.45 0-.85.46-1.13.8-1.76 2.5-7.15 9.38-10.32 9.38-1.14 0-1.48-1.19-1.48-2.16a31.88 31.88 0 0 1 .91-5.57 30.14 30.14 0 0 0 .73-5.52 9.32 9.32 0 0 0 -.62-3.58c-1-2.16-3.74-3.36-6-3.36a12.71 12.71 0 0 0 -6 1.94 2.41 2.41 0 0 1 -1 .4.61.61 0 0 1 -.56-.57c0-.8 4.93-8 5.73-9.1a57.47 57.47 0 0 1 3.57-4.66 2.5 2.5 0 0 1 1.48-.74c.51 0 1-.28 1-.91s-2-2-2.61-2.44-2.69-2.09-3.24-2.09-.68.57-.85.85c-.7 1.36-1.44 2.56-2.29 3.97a177.42 177.42 0 0 0 -11.86 20c-2.32 4.74-4.42 9.52-6.52 14.3zm46-29.46a24.76 24.76 0 0 0 .62 4.1c.17.62.45 1.87 1.25 1.87a5 5 0 0 0 .85-.11c3.63-1 8.73-1.76 12.53-2.33.57-.06 3.18-.51 3.58-.51s.85.17.85.68c0 .28-.34.68-1 1.36a25.34 25.34 0 0 0 -6.24 16.32c0 11.09 8.28 14.16 17.92 14.16 1 0 1.42-.11 1.82-1a16 16 0 0 0 .85-4.66c0-.91-.45-1-1.3-1-.62 0-1.87.06-2.84.06-5.78 0-10-1.59-10-8.19a21.37 21.37 0 0 1 2.72-10 17.29 17.29 0 0 1 9.64-8.48c3.27-1.11 6.14-1.11 9.43-1.11 1.36-.06 2.55.06 2.55-1.19a26.41 26.41 0 0 0 -.51-4.16c-.11-.68-.23-1.42-1.08-1.42a3.08 3.08 0 0 0 -.74.06c-4.25.71-8.56 1.23-12.87 1.71-8.22 1-16.5 1.82-24.78 2.33-2.51.2-3.29.03-3.29 1.51zm42.87 3.3c-.68 0-2.89 1.48-2.89 2.16a1.29 1.29 0 0 0 .4.74 49.37 49.37 0 0 1 3.68 4.72c.23.29.46.74.85.74.69 0 2.9-1.59 2.9-2.39s-4.37-6-4.94-6zm-6.86 3.13c-.63 0-2.89 1.42-2.89 2.1 0 .28.34.62.51.8 1.24 1.53 2.5 3.13 3.63 4.78.22.28.4.68.79.68.62 0 2.89-1.54 2.89-2.39 0-.68-4.31-6-4.93-6zm46.51 20.24c0 2.33-1.42 3.13-3.58 3.13-1.42 0-4.14-.63-4.14-2.45s2.77-2.19 4.07-2.19c1.08 0 3.65 0 3.65 1.51zm-1.15-34.46a.7.7 0 0 0 -.79.59.74.74 0 0 0 0 .21c0 .17.05.4.05.57.23 1.42.69 6.94.69 8.13s-1.31 1.37-2.67 1.37h-.91c-2.95 0-8-.57-8.67-.57-.85 0-.91.68-.91 1.42s.06 4 .57 4.32 2.89.46 4.31.46h.73c2.27 0 6.3-.23 6.75-.23 1.42 0 1.3 1.59 1.36 2.16.06 1.65.34 7.05.34 8.47 0 .74-.34 1.2-1.13 1.2h-.4a13.62 13.62 0 0 0 -2.17-.15c-4.43 0-8.9 2-8.9 7.16s4.93 7.39 9.47 7.39c3.4 0 7.2-1.13 8.22-4.77.11-.46.29-.91.85-.91.74 0 3.58 2.5 4.2 3.13a2.66 2.66 0 0 0 1.59.85c1.3 0 3.29-2.62 3.29-3.92 0-1-.79-1.6-1.48-2.17a31.66 31.66 0 0 0 -6.12-4c-1.25-.62-1.82-.73-1.93-2.21s-.45-10.18-.45-11.32c0-1.42.68-1.65 1.93-1.82 6.69-.91 7.08-1.31 7.08-2.39 0-.85-.4-4.77-1.53-4.77a4.27 4.27 0 0 0 -.85.17 36.74 36.74 0 0 1 -5.67 1.42c-.85 0-1.19-.68-1.19-1.48v-1.59c0-2.5.28-3.47.62-4s.63-.62.63-1.13c0-.35-.29-.46-.57-.52a53.7 53.7 0 0 0 -6.34-1.07zm-18 1.88a21.94 21.94 0 0 0 -3.63-1.48c-.51 0-.69.57-.74 1-.62 2.5-1.42 4.94-2 7.45a65.69 65.69 0 0 0 -2 15.92c0 6 .8 12.05 3.35 17.51.4.8.85 1.88 1.81 1.88.29 0 4.31-.68 4.31-2.9 0-.91-.11-1.82-.11-2.73 0-3.3 2.78-9.55 2.78-10.35s-1.81-1.82-2.44-1.82-1.25 1.88-1.53 2.5c-.57 1.31-.85 2-1.25 2-1.08 0-1.25-5.4-1.25-6.32a52.81 52.81 0 0 1 3.12-17.28c.68-1.76 1-2.27 2.33-2.9.28-.12.51-.23.51-.57 0-.57-1-1-1.48-1.14s-1.08-.43-1.81-.77zm70.37 8.19a.92.92 0 0 0 .51.85c5.39 4.15 7.71 9.55 8.39 16.21.12 1.36.06 2.16 1.87 2.16a11.82 11.82 0 0 0 3.18-.52c1-.28 1.53-.56 1.53-1.64 0-3.42-1.76-8.82-3.34-11.83-2.73-5.23-7.49-8.82-8.74-8.82s-3.4 2.51-3.4 3.59zm-25.58-3.7a.7.7 0 0 0 -.79.6c-.12.51-.29 7.73-.29 8.64 0 6 .46 13.2 3.29 18.54 1.87 3.47 5.16 7.28 9.36 7.28 2.67 0 4.42-1.71 6.07-3.58.79-.91 3.34-3.87 3.34-5s-2.89-3.35-4.08-3.35c-.74 0-1.19.85-1.53 1.42-.68 1.25-2.33 3.75-3.91 3.75-2 0-3.86-3.35-4.54-4.95-1.48-3.58-1.82-8.07-1.82-11.88a42 42 0 0 1 .46-6c.17-1 .23-2.1 1-2.73.34-.28.57-.4.57-.73 0-.57-.8-.69-1.25-.8-1-.17-5.16-1.25-5.9-1.25zm76.32-5.06a2.65 2.65 0 0 0 .04.64 69.91 69.91 0 0 1 1.42 9.32 1.54 1.54 0 0 1 -1.2 1.54c-1.3.28-7.08.74-8.67.85-2.5.11-2.72.11-2.72 2.33 0 3.58.9 3.7 1.64 3.7a11.14 11.14 0 0 0 2-.23c1-.17 7.65-1.19 8.11-1.19 1.3 0 1.41 1.14 1.41 2.9v1.19c0 8.08-1.87 13.25-8.11 18.48a1 1 0 0 0 -.45.86c0 1 3.12 3.75 4.14 3.75 1.19 0 3.35-2.56 4-3.47 4.48-5.57 6.23-11.48 6.23-18.59 0-1.48-.05-3-.05-4.55 0-2 1.64-1.93 3.68-2.16 2.95-.4 3.58-.46 3.58-1.88 0-1-.06-4.43-1.3-4.43a4.82 4.82 0 0 0 -.85.11c-.63.17-3.75.85-4.2.85-1 0-1.25-.8-1.3-1.65-.06-1.76-.29-3.52-.29-5.28 0-2.16.85-2 .85-2.79 0-.4-.51-.51-.79-.57-1.7-.28-3.46-.23-5.22-.4-.28 0-.68-.11-1-.11-.52 0-1 .17-1 .74zm-16.82 1.93c-.62-.22-4.76-1.7-5-1.7-.68 0-.74.85-.85 1.36a14.22 14.22 0 0 1 -.4 1.59 67.46 67.46 0 0 0 -2.89 18.66c0 6 1 12.68 4 18 .74 1.25 1.08 1.77 2 1.77.51 0 4.31-.8 4.31-3 0-.91-.06-1.82-.06-2.67 0-3.75 2.1-9.21 2.1-10s-1.87-1.71-2.38-1.71-1 1.25-1.59 2.68c-.23.51-.79 2.5-1.25 2.5-1.07 0-1.47-6.6-1.47-7.68a46.5 46.5 0 0 1 3.06-16 3.3 3.3 0 0 1 1.82-2c.28-.17.56-.28.56-.62-.03-.66-.82-.84-1.96-1.18zm62.32 31.9c2.84 0 2.9.63 2.9 1.77 0 2-.91 3.07-2.95 3.07-1.48 0-3.75-.91-3.75-2.68s2.44-2.16 3.8-2.16zm2.78-20.07c-.85 0-1.36.34-1.36 1.25 0 .29.06.51.06.8.17 2.22 1 10.47 1 12.28 0 .69-.51 1-1.19 1h-1.48c-4.48 0-9.41 1.82-9.41 7s5.39 7.74 10 7.74c3.86 0 7.2-1.43 7.88-5.58.06-.51.29-1.31.91-1.31.91 0 3.69 2 4.54 2.62.4.28.9.8 1.47.8 1.42 0 3.52-3.24 3.52-4.15 0-1.37-6.69-4.49-8-5l-.57-.23c-.85-.34-1.59-.57-1.76-1.42-.28-1.19-.56-9.38-.56-11 0-1.19.11-2.9.11-3 0-.69-.51-1-1.13-1.2a23.87 23.87 0 0 0 -4-.58zm8.68-8.76c-1.19 0-3.8 3.13-3.8 3.93 0 .4.51.74.74.91a32.24 32.24 0 0 1 7.14 7.33c.28.4.68 1 1.25 1 1 0 4.25-2.56 4.25-3.93s-8.16-9.24-9.58-9.24zm-19.06-9.26c-.51 0-.51.56-.51 1 0 1.82-1 8.13-1.81 9.56a2 2 0 0 1 -1.7.91 51.78 51.78 0 0 1 -5.84.28h-2.61c-.63 0-1 .17-1 .91 0 .57.28 2.62.4 3.3.22 1.31.45 1.82 1.42 1.82 1.3 0 5.67-.57 6.12-.57a.75.75 0 0 1 .79.73 21.64 21.64 0 0 1 -1.3 3.47 105.6 105.6 0 0 1 -6.75 13.13 6.38 6.38 0 0 0 -1 2c0 1.19 3.8 2.84 5.05 2.84.62 0 .8-.23 1.14-.8a146 146 0 0 0 9.24-20.24c.68-1.88.62-2.28 2.66-2.62 5.22-1 5.9-1.08 5.9-2.33a25.32 25.32 0 0 0 -.28-3c-.11-.68-.17-1.71-.85-1.71a1.94 1.94 0 0 0 -.57.12 27.91 27.91 0 0 1 -3.23.85.67.67 0 0 1 -.63-.69.09.09 0 0 1 0-.05 17.36 17.36 0 0 1 .62-2.56c.17-.62.57-2.62 1-3s.91-.63.91-1-.63-.57-.91-.68c-.93-.31-5.63-1.67-6.26-1.67zm66.28 13a.92.92 0 0 0 .51.85c5.39 4.15 7.71 9.55 8.39 16.21.11 1.36.06 2.16 1.87 2.16a11.82 11.82 0 0 0 3.18-.52c1-.28 1.53-.56 1.53-1.64 0-3.42-1.76-8.82-3.35-11.83-2.72-5.23-7.48-8.82-8.73-8.82s-3.4 2.51-3.4 3.59zm-25.58-3.7a.7.7 0 0 0 -.79.6c-.12.51-.29 7.73-.29 8.64 0 6 .46 13.2 3.29 18.54 1.87 3.47 5.16 7.28 9.36 7.28 2.66 0 4.42-1.71 6.07-3.58.79-.91 3.34-3.87 3.34-5s-2.89-3.35-4.08-3.35c-.74 0-1.19.85-1.53 1.42-.68 1.25-2.33 3.75-3.91 3.75-2 0-3.86-3.35-4.54-4.95-1.48-3.58-1.82-8.07-1.82-11.88a42 42 0 0 1 .46-6c.17-1 .22-2.1 1-2.73.34-.28.57-.4.57-.73 0-.57-.8-.69-1.25-.8-1-.17-5.16-1.25-5.9-1.25zm56.06 25.81a5 5 0 0 1 5 4.94v.12a5 5 0 1 1 -5-5zm0-2.84a7.89 7.89 0 0 0 -7.89 7.87 7.89 7.89 0 1 0 7.91-7.9z"/></g></svg>